<?xml version="1.0" encoding="UTF-8" standalone="no"?>
<!-- Generator: Adobe Illustrator 15.1.0, SVG Export Plug-In . SVG Version: 6.00 Build 0)  -->

<svg
   xmlns:dc="http://purl.org/dc/elements/1.1/"
   xmlns:cc="http://creativecommons.org/ns#"
   xmlns:rdf="http://www.w3.org/1999/02/22-rdf-syntax-ns#"
   xmlns:svg="http://www.w3.org/2000/svg"
   xmlns="http://www.w3.org/2000/svg"
   xmlns:sodipodi="http://sodipodi.sourceforge.net/DTD/sodipodi-0.dtd"
   xmlns:inkscape="http://www.inkscape.org/namespaces/inkscape"
   version="1.1"
   id="Layer_1"
   x="0px"
   y="0px"
   width="450px"
   height="450px"
   viewBox="0 0 450 450"
   enable-background="new 0 0 450 450"
   xml:space="preserve"
   inkscape:version="0.91 r13725"
   sodipodi:docname="icon.svg"><metadata
     id="metadata29"><rdf:RDF><cc:Work
         rdf:about=""><dc:format>image/svg+xml</dc:format><dc:type
           rdf:resource="http://purl.org/dc/dcmitype/StillImage" /><dc:title /></cc:Work></rdf:RDF></metadata><defs
     id="defs27" /><sodipodi:namedview
     pagecolor="#ffffff"
     bordercolor="#666666"
     borderopacity="1"
     objecttolerance="10"
     gridtolerance="10"
     guidetolerance="10"
     inkscape:pageopacity="0"
     inkscape:pageshadow="2"
     inkscape:window-width="1366"
     inkscape:window-height="705"
     id="namedview25"
     showgrid="false"
     inkscape:zoom="1.0488889"
     inkscape:cx="-38.861302"
     inkscape:cy="224.05163"
     inkscape:window-x="-8"
     inkscape:window-y="-8"
     inkscape:window-maximized="1"
     inkscape:current-layer="Layer_1" /><g
     id="g3"><path
       fill="#25BCB9"
       d="M-530.107,707.955l5.381,0.283v43.436c0,1.131-0.221,1.904-0.66,2.312c-0.441,0.41-1.133,0.678-2.078,0.803    l-3.115,0.285v7.646h22.852v-8.025l-5.383-0.285v-43.527c0-1.824,0.912-2.832,2.736-3.021l3.117-0.283v-7.648h-22.85V707.955z"
       id="path5" /><path
       fill="#25BCB9"
       d="M-563.675,698.797c-7.459,0-13.99,2.424-19.593,7.27c-2.77,2.393-5.004,5.775-6.704,10.15    c-1.699,4.377-2.549,9.459-2.549,15.25c0,10.574,2.423,18.635,7.271,24.172c4.847,5.541,11.535,8.311,20.066,8.311    c8.527,0,15.296-2.787,20.301-8.357s7.507-13.785,7.507-24.645c0-10.857-2.52-18.932-7.555-24.219    C-549.968,701.439-556.214,698.797-563.675,698.797z M-552.296,747.234c-2.329,4.785-6.389,7.176-12.18,7.176    c-10.828,0-16.242-7.803-16.242-23.416c0-4.027,0.472-7.646,1.417-10.857c0.944-3.211,2.659-5.949,5.145-8.215    c2.486-2.268,5.46-3.4,8.924-3.4c3.461,0,6.279,0.725,8.45,2.172c2.173,1.449,3.793,3.432,4.863,5.949    c1.89,4.596,2.833,9.631,2.833,15.107C-549.085,737.857-550.157,743.02-552.296,747.234z"
       id="path7" /><path
       fill="#25BCB9"
       d="M-615.183,707.955l5.759,0.379l-13.219,40.885h-0.473l-12.651-38.053c-0.127-0.377-0.19-0.723-0.19-1.039    c0-1.383,0.976-2.139,2.927-2.266l3.116-0.283v-7.648h-24.361v8.025l5.382,0.283l19.262,54.482h12.275l17.846-52.027    c0.378-1.006,0.756-1.715,1.133-2.125c0.379-0.408,0.975-0.643,1.794-0.707l3.116-0.283v-7.648h-21.717V707.955z"
       id="path9" /><path
       fill="#25BCB9"
       d="M-457.638,704.887c-3.936-3.305-9.428-4.957-16.477-4.957h-27.006v8.025l5.381,0.283v43.906    c0,1.574-0.912,2.455-2.736,2.645l-3.117,0.285v7.646h26.439v-8.025l-9.064-0.285v-13.689h8.025c7.365,0,13.281-1.842,17.752-5.523    c4.469-3.684,6.705-8.83,6.705-15.439S-453.705,708.191-457.638,704.887z M-477.421,731.561h-6.797v-22.473h5.76    c5.16,0,8.924,0.742,11.283,2.221c2.361,1.479,3.541,4.484,3.541,9.016C-463.634,727.816-468.23,731.561-477.421,731.561z"
       id="path11" /><path
       fill="#25BCB9"
       d="M-382.595,670.705c-9.316-22.023-22.65-41.803-39.635-58.785c-16.984-16.984-36.762-30.32-58.785-39.635    c-22.803-9.645-47.023-14.535-71.99-14.535c-24.966,0-49.187,4.891-71.99,14.535c-22.023,9.314-41.801,22.65-58.786,39.635    c-16.984,16.982-30.318,36.762-39.634,58.785c-9.644,22.803-14.535,47.023-14.535,71.988c0,24.967,4.891,49.188,14.535,71.99    c9.315,22.023,22.65,41.801,39.634,58.785c16.985,16.984,36.763,30.32,58.786,39.635c22.803,9.645,47.023,14.535,71.99,14.535    c24.967,0,49.188-4.891,71.99-14.535c22.023-9.314,41.801-22.65,58.785-39.635s30.318-36.762,39.635-58.785    c9.645-22.803,14.535-47.023,14.535-71.99C-368.06,717.729-372.951,693.508-382.595,670.705z M-415.958,758.535    c-3.412,15.807-10.402,30.334-20.777,43.184c-9.727,12.047-22.004,22.115-36.512,29.941c-5.195,30.021-20.434,55.947-21.09,57.053    c-0.502,0.846-1.404,1.336-2.348,1.336c-0.279,0-0.561-0.043-0.838-0.131c-1.213-0.393-1.994-1.57-1.883-2.84    c1.672-18.934-2.408-33.469-6.518-42.836c-12.062,3.012-24.637,4.539-37.408,4.539c-11.549,0-23.233-1.258-34.727-3.738    c-18.447-3.98-35.688-10.896-51.246-20.551c-15.047-9.338-27.896-20.836-38.19-34.176c-10.32-13.375-17.554-27.926-21.5-43.254    c-4.097-15.908-4.452-31.951-1.058-47.682c2.87-13.297,8.315-25.77,16.185-37.07c7.591-10.9,17.271-20.484,28.77-28.482    c11.359-7.9,24.181-14.041,38.11-18.252c14.139-4.273,29.046-6.439,44.306-6.439c11.549,0,23.235,1.258,34.729,3.738    c18.447,3.98,35.689,10.895,51.246,20.551c15.047,9.338,27.896,20.836,38.189,34.176c10.32,13.373,17.555,27.926,21.5,43.252    C-412.919,726.764-412.564,742.807-415.958,758.535z"
       id="path13" /></g><path
     style="fill:#d45500"
     d="M 221.8457 99.501953 A 140 140 0 0 0 81.845703 239.50195 A 140 140 0 0 0 221.8457 379.50195 A 140 140 0 0 0 361.8457 239.50195 A 140 140 0 0 0 221.8457 99.501953 z M 224.92969 172.33008 C 256.94569 172.33008 287.32837 184.50161 310.48438 206.59961 C 316.33738 212.18761 316.55284 221.46141 310.96484 227.31641 C 308.08684 230.33441 304.22828 231.85352 300.36328 231.85352 C 296.72728 231.85352 293.08509 230.50978 290.24609 227.80078 C 272.57009 210.92978 249.37369 201.63867 224.92969 201.63867 C 200.54769 201.63867 177.39538 210.88664 159.73438 227.68164 C 153.87037 233.25764 144.59262 233.02516 139.01562 227.16016 C 133.43863 221.29716 133.67211 212.01936 139.53711 206.44336 C 162.67011 184.44536 192.99669 172.33008 224.92969 172.33008 z M 225.00195 219.89844 C 244.72995 219.89844 263.4488 227.39867 277.7168 241.01367 C 283.5708 246.60267 283.78722 255.87742 278.19922 261.73242 C 272.61122 267.58742 263.33647 267.8048 257.48047 262.2168 C 248.69047 253.8278 237.15795 249.20703 225.00195 249.20703 C 212.84595 249.20703 201.30953 253.82775 192.51953 262.21875 C 189.68253 264.92575 186.0403 266.27148 182.4043 266.27148 C 178.5393 266.27148 174.68078 264.75038 171.80078 261.73438 C 166.21278 255.87938 166.4292 246.60362 172.2832 241.01562 C 186.5512 227.39863 205.27295 219.89844 225.00195 219.89844 z M 225 268.22656 C 240.485 268.22656 253.03711 280.77967 253.03711 296.26367 C 253.03711 311.74967 240.485 324.30273 225 324.30273 C 209.515 324.30273 196.96289 311.74967 196.96289 296.26367 C 196.96289 280.77967 209.515 268.22656 225 268.22656 z "
     id="path15"
     inkscape:export-xdpi="41.142857"
     inkscape:export-ydpi="41.142857" /><g
     id="g17"><polygon
       fill="#010101"
       points="-553.003,742.989 -553.596,742.989 -553.005,742.4 -552.415,742.988  "
       id="polygon19" /></g><path
     fill="#25BCB9"
     d="M1530.245,153.305c-9.315-22.024-22.65-41.803-39.636-58.786c-16.984-16.985-36.761-30.319-58.785-39.635   c-22.803-9.645-47.023-14.534-71.989-14.534c-24.967,0-49.187,4.89-71.989,14.534c-22.023,9.315-41.803,22.649-58.786,39.635   c-16.984,16.983-30.319,36.762-39.634,58.786c-9.646,22.802-14.535,47.022-14.535,71.988c0,24.966,4.89,49.187,14.535,71.99   c9.314,22.023,22.649,41.801,39.634,58.785c16.983,16.984,36.763,30.32,58.786,39.635c22.803,9.645,47.022,14.535,71.989,14.535   c24.966,0,49.187-4.891,71.989-14.535c22.024-9.314,41.801-22.65,58.785-39.635c16.985-16.984,30.32-36.762,39.636-58.785   c9.644-22.803,14.534-47.023,14.534-71.99C1544.779,200.328,1539.889,176.107,1530.245,153.305z M1483.65,288.428   c-12.076,7.004-25.253,7.549-29.005,7.549c-0.646,0-1.083-0.014-1.274-0.023h-196.776c-0.449,0.043-1.569,0.129-3.188,0.129   c-5.177,0-15.183-0.885-24.036-6.799c-11.038-7.375-16.635-19.83-16.635-37.023c0-22.971,10.831-34.103,19.916-39.397   c9.103-5.303,18.726-6.326,23.534-6.473c5.862-17.057,14.585-29.665,25.948-37.499c8.908-6.142,19.211-9.255,30.621-9.255   c7.097,0,12.933,1.236,16.283,2.153c15.959-35.152,46.863-39.023,59.651-39.023c2.793,0,4.714,0.189,5.371,0.264   c17.506,0.042,31.668,5.438,42.098,16.042c15.478,15.736,18.098,38.175,18.527,46.445c4.87,0.504,14.579,2.119,24.372,7.266   c12.717,6.685,27.877,20.73,27.877,49.686C1506.935,269.291,1494.271,282.266,1483.65,288.428z"
     id="path21" /><path
     fill="#25BCB9"
     d="M1857.824,571.955c-9.314-22.023-22.65-41.802-39.635-58.786s-36.762-30.318-58.785-39.634   c-22.803-9.645-47.023-14.535-71.99-14.535c-24.965,0-49.186,4.891-71.988,14.535c-22.023,9.315-41.803,22.649-58.787,39.634   s-30.318,36.763-39.633,58.786c-9.645,22.803-14.535,47.023-14.535,71.989s4.891,49.187,14.535,71.989   c9.314,22.024,22.648,41.803,39.633,58.787c16.984,16.983,36.764,30.318,58.787,39.634c22.803,9.644,47.023,14.534,71.988,14.534   c24.967,0,49.188-4.891,71.99-14.534c22.023-9.315,41.801-22.65,58.785-39.634c16.984-16.984,30.32-36.763,39.635-58.787   c9.645-22.803,14.535-47.023,14.535-71.989S1867.469,594.758,1857.824,571.955z M1680.516,698.585c0,2.446-1.982,4.431-4.428,4.431   h-25.291l-11.324,11.323h13.584c2.445,0,4.428,1.983,4.428,4.428v22.896c0,2.444-1.982,4.428-4.428,4.428h-51.912   c-8.754,0-15.877-7.122-15.877-15.876v-51.911c0-2.446,1.984-4.43,4.43-4.43h22.895c2.445,0,4.428,1.983,4.428,4.43v13.582   l11.324-11.323v-25.051c0-2.446,1.982-4.43,4.43-4.43h22.895c2.445,0,4.428,1.983,4.428,4.43v15.751h15.992   c2.445,0,4.428,1.983,4.428,4.429V698.585z M1680.516,612.195c0,2.447-1.982,4.43-4.428,4.43h-15.992v15.991   c0,2.447-1.982,4.43-4.428,4.43h-22.895c-2.447,0-4.43-1.982-4.43-4.43v-25.291l-11.324-11.323v13.583   c0,2.446-1.982,4.429-4.428,4.429h-22.895c-2.445,0-4.43-1.982-4.43-4.429v-51.911c0-8.754,7.123-15.876,15.877-15.876h51.912   c2.445,0,4.428,1.983,4.428,4.429v22.896c0,2.445-1.982,4.429-4.428,4.429h-13.582l11.322,11.321h25.291   c2.445,0,4.428,1.983,4.428,4.429V612.195z M1746.486,687.139c0,8.754-7.123,15.877-15.877,15.877h-31.867   c-2.447,0-4.428-1.984-4.428-4.431v-22.894c0-2.445,1.98-4.429,4.428-4.429h15.992v-15.751c0-2.446,1.98-4.43,4.43-4.43h22.895   c2.443,0,4.428,1.983,4.428,4.43V687.139z M1789.562,609.585c0,2.446-1.984,4.429-4.43,4.429h-22.895   c-2.447,0-4.43-1.982-4.43-4.429v-13.583l-11.322,11.323v25.291c0,2.447-1.984,4.43-4.428,4.43h-22.895   c-2.449,0-4.43-1.982-4.43-4.43v-15.991h-15.992c-2.447,0-4.428-1.982-4.428-4.43v-22.895c0-2.445,1.98-4.429,4.428-4.429h25.291   l11.322-11.321h-13.58c-2.447,0-4.43-1.983-4.43-4.429v-22.896c0-2.445,1.982-4.429,4.43-4.429h51.91   c8.754,0,15.877,7.122,15.877,15.876V609.585z"
     id="path23" /></svg>